<?xml version="1.0" standalone="no"?>
<!DOCTYPE svg PUBLIC "-//W3C//DTD SVG 20010904//EN"
 "http://www.w3.org/TR/2001/REC-SVG-20010904/DTD/svg10.dtd">
<svg version="1.0" xmlns="http://www.w3.org/2000/svg"
 width="1280.000000pt" height="1280.000000pt" viewBox="0 0 1280.000000 1280.000000"
 preserveAspectRatio="xMidYMid meet">
<metadata>
Created by potrace 1.15, written by Peter Selinger 2001-2017
</metadata>
<g transform="translate(0.000000,1280.000000) scale(0.100000,-0.100000)"
fill="#000000" stroke="none">
<path d="M6165 10485 c-444 -66 -788 -246 -1157 -604 -412 -399 -730 -944
-954 -1635 -188 -577 -275 -1177 -252 -1743 18 -479 142 -1078 318 -1543 108
-285 307 -677 463 -910 224 -335 560 -671 858 -857 551 -345 1237 -371 1809
-69 539 284 996 801 1316 1488 154 331 236 570 319 928 180 782 175 1619 -15
2405 -116 480 -287 892 -537 1289 -405 642 -947 1078 -1518 1220 -178 44 -466
58 -650 31z m390 -417 c107 -23 200 -78 301 -179 148 -146 270 -394 364 -739
51 -187 78 -338 125 -695 l46 -350 28 -720 c23 -620 26 -771 19 -1090 -19
-943 -116 -1718 -274 -2200 -143 -433 -349 -692 -604 -760 -71 -19 -220 -19
-293 0 -158 41 -296 151 -409 325 -182 281 -298 675 -382 1300 l-46 335 -29
725 c-26 651 -29 763 -21 1095 27 1139 158 1987 379 2448 128 266 293 436 483
496 90 29 205 32 313 9z"/>
</g>
</svg>
